/* XPM */
static char *e090c77d360d45ddd553d2d2dd283efdf7mouEUBjoZwjlSC[] = {
/* columns rows colors chars-per-pixel */
"32 32 122 2 ",
"   c None",
".  c #007900",
"X  c #007A00",
"o  c #007C14",
"O  c #007D1B",
"+  c #007D1C",
"@  c #007E23",
"#  c #00802C",
"$  c #00812F",
"%  c #008130",
"&  c #008336",
"*  c #008337",
"=  c #08843A",
"-  c #0B843B",
";  c #238743",
":  c #2B8847",
">  c #2D8848",
",  c #2D8948",
"<  c #30894A",
"1  c #328A4B",
"2  c #378A4D",
"3  c #368B4D",
"4  c #378B4D",
"5  c #378A4E",
"6  c #368B4E",
"7  c #378B4E",
"8  c #368B4F",
"9  c #378B4F",
"0  c #378C4E",
"q  c #378C4F",
"w  c #388B4E",
"e  c #388B4F",
"r  c #398B4F",
"t  c #388C4E",
"y  c #388D4F",
"u  c #3A8C50",
"i  c #3B8C50",
"p  c #3B8C51",
"a  c #388E50",
"s  c #388F50",
"d  c #398F51",
"f  c #3C8C51",
"g  c #3D8D52",
"h  c #3E8D52",
"j  c #3E8D53",
"k  c #3F8D54",
"l  c #399051",
"z  c #399151",
"x  c #399152",
"c  c #3A9252",
"v  c #3A9353",
"b  c #3A9453",
"n  c #3B9453",
"m  c #3B9553",
"M  c #3B9654",
"N  c #408D54",
"B  c #428E55",
"V  c #428E56",
"C  c #438F57",
"Z  c #458F58",
"A  c #4B915C",
"S  c #5F996C",
"D  c #7CA785",
"F  c #7CA885",
"G  c #7DA886",
"H  c #7FA988",
"J  c #80A989",
"K  c #85AD8D",
"L  c #85AD8E",
"P  c #96B69C",
"I  c #96B69D",
"U  c #9BB9A1",
"Y  c #A3BDA8",
"T  c #A3BEA8",
"R  c #AAC2AF",
"E  c #ABC3B0",
"W  c #ADC5B2",
"Q  c #AEC5B2",
"!  c #B4C8B7",
"~  c #B4C9B8",
"^  c #B6CABA",
"/  c #B7CBBB",
"(  c #B8CBBB",
")  c #BCCEBF",
"_  c #BDCFC1",
"`  c #C0D1C3",
"'  c #C1D2C4",
"]  c #C2D2C5",
"[  c #C3D3C6",
"{  c #C6D5C8",
"}  c #C6D5C9",
"|  c #CBD9CE",
" . c #CCDACE",
".. c #CCDACF",
"X. c #CFDBD1",
"o. c #D0DDD3",
"O. c #D5E0D7",
"+. c #D9E3DB",
"@. c #DBE4DC",
"#. c #DBE4DD",
"$. c #DCE5DE",
"%. c #E0E8E1",
"&. c #E0E8E2",
"*. c #E2E9E3",
"=. c #E3EAE4",
"-. c #E7EDE8",
";. c #EAEFEB",
":. c #EBF0EC",
">. c #F1F5F2",
",. c #F2F5F2",
"<. c #F5F7F5",
"1. c #F7F9F7",
"2. c #F8F9F8",
"3. c #F8FAF8",
"4. c #FCFDFC",
"5. c #FCFDFD",
"6. c #FDFDFD",
"7. c #FDFEFD",
"8. c #FDFEFE",
"9. c #FEFEFE",
"0. c #FEFFFE",
"q. c white",
/* pixels */
"                        0 6 6 6 6 6 6 6                         ",
"                  0 6 n n c d 6 6 d c n n 6 6                   ",
"              0 0 n 0 6 6 6 6 6 6 6 6 6 6 0 n 0 6               ",
"            6 M 6 6 6 6 6 B B B B B B 6 6 6 6 0 M e             ",
"          6 c 6 0 6 6 6 6 @ . . . . @ 6 6 6 6 0 6 c 6           ",
"        6 d 6 6 6 6 6 6 6 R ] _ _ ] R 6 6 6 6 6 6 6 c 6         ",
"      6 c 6 6 6 6 6 e 1 A >.$.&.&.$.>.A 1 e 6 6 6 6 6 c 6       ",
"    6 M 6 6 6 6 6 6 e 1 S +.F L L F +.S 1 e 6 6 6 6 6 6 M 6     ",
"    0 6 0 6 6 6 6 6 f * * -.&.=.=.&.-.* * f 6 6 6 6 6 6 6 6     ",
"  0 n 6 6 6 6 6 6 d ; D Y ^ ] ` ` ] ^ Y D ; d 6 6 6 6 6 6 n e   ",
"  6 0 6 6 6 6 6 6 B o o.q.q.q.q.q.q.q.q.o.o B 6 6 6 6 6 6 t 6   ",
"  n 6 6 6 6 6 6 6 B + | q.q.q.q.q.q.q.q.| + B 6 6 6 6 6 6 6 n   ",
"0 n 6 6 6 6 6 6 6 B O ..q.q.q.q.q.q.q.q...O B 6 6 6 6 6 6 6 n 6 ",
"6 c 6 6 6 6 6 6 6 B O ..q.q.;.q.q.q.q.q...O B 6 6 6 6 6 6 6 c 6 ",
"6 d 6 6 6 6 6 6 6 B O ..q.q.^ 3.q.q.q.q...O B 6 e e 6 6 6 6 d 6 ",
"6 6 6 6 6 6 6 6 6 B O ..q.q.) 1.q.q.q.q...O B 6 6 6 6 6 6 6 0 6 ",
"6 6 6 6 6 6 6 6 6 B O ..q.q.( q.<.X.q.q...O B 6 6 6 6 6 6 6 0 6 ",
"6 d 6 6 6 6 6 6 6 B O ..q.q.] >.U Y q.q...O B 6 6 6 6 e 6 6 d 6 ",
"6 c 6 6 6 6 6 6 6 B O ..q.q.E U -.] q.q...O B 6 6 6 6 6 6 6 c 6 ",
"e n 6 6 6 6 6 6 6 B O ..q.q.` :.q.^ q.q...O B 6 6 6 6 6 6 6 n 6 ",
"  n 6 6 6 6 6 6 6 B O ..q.q.q.q.1.) q.q...O B 6 6 6 6 6 6 6 c   ",
"  6 0 6 6 6 e 6 6 B + ..q.q.q.q.3.! q.q...+ B 6 6 6 6 6 6 t 6   ",
"  0 n 6 6 6 e 6 6 B o } q.q.q.q.q.&.q.q.} o B 6 6 6 6 6 6 n 6   ",
"    6 0 6 6 6 6 6 k # I q.q.q.q.q.q.q.q.I # k 6 6 6 6 6 6 6     ",
"    6 M 6 6 6 6 6 e d - #.q.q.q.q.q.q.#.- f e 6 6 6 6 6 M 6     ",
"      6 c 6 6 6 6 6 d : Z O.q.q.q.q.O.B : d 6 6 6 6 6 c 6       ",
"        6 c 6 6 6 6 6 f > % J Q Q H # > f 6 6 6 6 6 c 6         ",
"          6 c 6 0 6 6 6 d f * O O * f d 6 6 6 6 6 c 6           ",
"            0 M 6 6 6 6 6 6 f B B f 6 6 6 6 6 6 M 6             ",
"              t 6 n t 6 6 6 6 6 6 6 6 6 6 t n 6 6               ",
"                  e 6 c n c d 0 0 d c n c 6 6                   ",
"                        6 6 6 6 6 6 6 6                         "
};
